<svg width="30" height="30" viewBox="0 0 30 30" fill="none" xmlns="http://www.w3.org/2000/svg">
<path d="M14.9999 9C16.6354 9 18.204 9.63214 19.3606 10.7574C20.5171 11.8826 21.1668 13.4087 21.1668 15C21.1668 16.5913 20.5171 18.1174 19.3606 19.2426C18.204 20.3679 16.6354 21 14.9999 21C13.3643 21 11.7957 20.3679 10.6391 19.2426C9.48261 18.1174 8.83287 16.5913 8.83287 15C8.83287 13.4087 9.48261 11.8826 10.6391 10.7574C11.7957 9.63214 13.3643 9 14.9999 9ZM14.9999 12C14.1821 12 13.3978 12.3161 12.8195 12.8787C12.2412 13.4413 11.9164 14.2044 11.9164 15C11.9164 15.7956 12.2412 16.5587 12.8195 17.1213C13.3978 17.6839 14.1821 18 14.9999 18C15.8176 18 16.6019 17.6839 17.1802 17.1213C17.7585 16.5587 18.0833 15.7956 18.0833 15C18.0833 14.2044 17.7585 13.4413 17.1802 12.8787C16.6019 12.3161 15.8176 12 14.9999 12ZM11.9164 30C11.5309 30 11.2072 29.73 11.1455 29.37L10.575 25.395C9.60375 25.02 8.7712 24.51 7.9695 23.91L4.13055 25.425C3.79137 25.545 3.3751 25.425 3.19009 25.095L0.106597 19.905C0.0122355 19.7504 -0.0210304 19.5677 0.0130203 19.3911C0.047071 19.2144 0.146107 19.0558 0.291607 18.945L3.54469 16.455L3.43677 15L3.54469 13.5L0.291607 11.055C0.146107 10.9442 0.047071 10.7856 0.0130203 10.6089C-0.0210304 10.4323 0.0122355 10.2496 0.106597 10.095L3.19009 4.905C3.3751 4.575 3.79137 4.44 4.13055 4.575L7.9695 6.075C8.7712 5.49 9.60375 4.98 10.575 4.605L11.1455 0.63C11.2072 0.27 11.5309 0 11.9164 0H18.0833C18.4688 0 18.7925 0.27 18.8542 0.63L19.4247 4.605C20.396 4.98 21.2285 5.49 22.0302 6.075L25.8692 4.575C26.2083 4.44 26.6246 4.575 26.8096 4.905L29.8931 10.095C30.0935 10.425 30.001 10.83 29.7081 11.055L26.455 13.5L26.5629 15L26.455 16.5L29.7081 18.945C30.001 19.17 30.0935 19.575 29.8931 19.905L26.8096 25.095C26.6246 25.425 26.2083 25.56 25.8692 25.425L22.0302 23.925C21.2285 24.51 20.396 25.02 19.4247 25.395L18.8542 29.37C18.7925 29.73 18.4688 30 18.0833 30H11.9164ZM13.8435 3L13.2731 6.915C11.423 7.29 9.78875 8.25 8.60161 9.585L4.88601 8.025L3.7297 9.975L6.98278 12.3C6.36608 14.05 6.36608 15.95 6.98278 17.7L3.71428 20.04L4.87059 21.99L8.61703 20.43C9.80417 21.75 11.423 22.71 13.2577 23.07L13.8281 27H16.1716L16.742 23.085C18.5767 22.71 20.1955 21.75 21.3827 20.43L25.1291 21.99L26.2854 20.04L23.0169 17.715C23.6336 15.96 23.6336 14.055 23.0169 12.3L26.27 9.975L25.1137 8.025L21.3981 9.585C20.1866 8.22048 18.5433 7.28651 16.7266 6.93L16.1562 3H13.8435Z" fill="black"/>
</svg>
