<svg width="1338" height="225" viewBox="0 0 1338 225" fill="none" xmlns="http://www.w3.org/2000/svg">
<mask id="mask0_113_811" style="mask-type:alpha" maskUnits="userSpaceOnUse" x="0" y="0" width="1338" height="225">
<rect width="1338" height="225" fill="#D9D9D9"/>
</mask>
<g mask="url(#mask0_113_811)">
<path d="M742.972 47.7852L750.399 40.0793C750.767 31.2918 754.126 15.7819 761.108 15.2085C763.97 15.2482 767.069 17.5957 767.55 21.7652C768.88 33.2836 762.707 38.3658 755.652 45.245L742.798 58.5809L742.783 58.5654C731.133 71.4352 716.036 87.3647 714.229 102.345C711.942 124.35 727.024 146.716 749.895 145.6L748.594 138.206C733.238 136.199 720.04 120.293 725.385 104.929C734.91 80.2048 756.351 66.9412 772.995 44.3503C777.691 37.9766 778.96 25.1378 777.83 18.5149C776.701 11.8915 771.959 0.889875 764.71 0.091418C750.503 -1.78706 739.858 25.66 742.973 47.7852H742.972ZM753.477 78.846L747.13 85.0863C747.352 86.222 747.607 87.6176 747.984 90.0547C734.063 98.8557 733.016 117.355 742.997 127.281C745.116 129.454 749.204 126.148 747.132 123.731C742.642 115.633 742.182 105.712 749.482 100.347C753.076 121.03 759.561 148.295 761.827 170.287C761.976 171.733 759.129 174.631 757.746 174.951C757.746 165.91 750.417 158.58 741.375 158.58C732.335 158.58 725.005 165.91 725.005 174.951C725.012 183.215 731.253 189.687 739.379 191.185C756.571 194.355 771.571 183.845 769.157 169.429C765.558 145.258 760.159 119.906 756.528 97.6783C761.467 97.1655 768.346 99.7938 771.437 102.936C774.946 106.741 776.737 112.083 776.34 116.354C775.962 120.43 773.302 124.945 769.359 128.788L770.857 137.291C777.956 132.141 785.229 124.937 785.975 116.892C786.596 110.199 783.925 100.389 778.576 95.4986C771.666 89.181 762.896 87.9057 755.105 88.7001C754.285 83.3532 753.87 81.3175 753.477 78.846Z" fill="black"/>
<path d="M10.2871 188.962V178.043C13.9928 177.911 16.8383 177.249 18.8235 176.058C20.8087 174.867 22.1983 172.882 22.9924 170.103C23.7865 167.191 24.1835 163.154 24.1835 157.993V79.5773C24.1835 76.004 24.2497 72.6953 24.382 69.6513C24.6467 66.6074 24.8452 64.2251 24.9776 62.5046C22.7277 62.637 20.1469 62.7693 17.2353 62.9017C14.3237 62.9017 12.0076 62.9678 10.2871 63.1002V49.9978C18.7573 49.8655 27.2936 49.7993 35.8962 49.7993C44.4987 49.7993 53.1674 49.7332 61.9023 49.6008C77.5192 49.4685 89.8936 52.3139 99.0256 58.1372C108.157 63.9604 112.459 72.8938 111.929 84.9374C111.797 88.9078 110.606 92.812 108.356 96.6501C106.106 100.488 102.797 103.929 98.43 106.973C94.0626 110.017 88.5702 112.333 81.9528 113.921V114.12C95.5846 115.576 105.709 119.678 112.326 126.428C118.944 133.045 122.252 140.788 122.252 149.655C122.252 158.125 120.201 165.272 116.098 171.095C111.996 176.918 106.305 181.352 99.0256 184.396C91.8789 187.44 83.7395 188.962 74.6076 188.962H10.2871ZM48.403 176.852C50.6528 176.985 52.9689 177.051 55.3512 177.051C57.8657 177.051 60.248 177.051 62.4979 177.051C64.7478 176.918 66.6668 176.852 68.255 176.852C76.9898 176.587 83.6072 174.073 88.107 169.308C92.7391 164.412 95.0552 157.86 95.0552 149.655C95.0552 142.905 93.6655 137.611 90.8863 133.773C88.2393 129.935 84.7321 127.222 80.3647 125.634C76.1296 124.046 71.5636 123.252 66.6668 123.252C63.0934 123.252 59.9833 123.252 57.3364 123.252C54.6894 123.252 51.9763 123.384 49.197 123.649V160.177C49.197 163.75 49.1309 166.992 48.9985 169.904C48.8662 172.816 48.6676 175.132 48.403 176.852ZM49.197 111.539L60.9097 111.341C67.13 111.208 72.0268 109.885 75.6002 107.37C79.1736 104.723 81.7543 101.348 83.3425 97.2456C84.9306 93.0105 85.7247 88.4446 85.7247 83.5477C85.5924 77.7245 84.2689 73.2247 81.7543 70.0484C79.3721 66.7397 76.3943 64.4236 72.8209 63.1002C69.2476 61.7767 65.5419 61.1811 61.7038 61.3135C58.9245 61.3135 56.6085 61.7105 54.7556 62.5046C52.9027 63.2987 51.5131 64.953 50.5867 67.4676C49.6602 69.9822 49.197 73.7541 49.197 78.7833V111.539ZM132.312 178.44C136.15 178.44 138.863 177.646 140.451 176.058C142.172 174.338 143.164 171.955 143.429 168.911C143.826 165.867 144.024 162.426 144.024 158.588V72.8277C144.024 70.5778 144.091 68.1293 144.223 65.4824C144.355 62.7031 144.554 59.8577 144.819 56.9461C142.569 57.0784 140.12 57.2107 137.473 57.3431C134.826 57.4754 132.576 57.6078 130.724 57.7401V44.8363C136.812 44.8363 141.775 44.5716 145.613 44.0423C149.583 43.3805 152.627 42.5864 154.745 41.66C156.994 40.7336 158.583 39.8733 159.509 39.0792H168.442L168.641 160.574C168.641 162.691 168.575 165.272 168.442 168.316C168.31 171.227 168.045 174.073 167.648 176.852C169.898 176.587 172.214 176.455 174.597 176.455C176.979 176.323 178.964 176.257 180.552 176.257V188.962H132.312V178.44ZM194.414 178.44C198.253 178.44 200.966 177.646 202.554 176.058C204.142 174.338 205.135 171.955 205.532 168.911C205.929 165.867 206.127 162.426 206.127 158.588V121.465C206.127 119.215 206.193 116.767 206.326 114.12C206.458 111.341 206.657 108.495 206.921 105.583C204.671 105.716 202.223 105.848 199.576 105.981C196.929 106.113 194.745 106.245 193.025 106.378V93.4737C198.98 93.4737 203.877 93.2091 207.715 92.6797C211.686 92.0179 214.73 91.2239 216.847 90.2974C219.097 89.371 220.685 88.5107 221.612 87.7167H230.545V160.574C230.545 162.691 230.479 165.272 230.347 168.316C230.347 171.227 230.148 174.073 229.751 176.852C231.869 176.587 234.118 176.455 236.501 176.455C239.015 176.323 241.067 176.257 242.655 176.257V188.962H194.414V178.44ZM217.244 70.6439C213.406 70.6439 210.164 69.2543 207.517 66.475C204.87 63.5634 203.546 60.0562 203.546 55.9535C203.546 51.8507 204.87 48.3435 207.517 45.4319C210.296 42.5203 213.539 41.0644 217.244 41.0644C221.082 41.0644 224.259 42.5203 226.773 45.4319C229.42 48.3435 230.744 51.8507 230.744 55.9535C230.744 60.0562 229.486 63.5634 226.972 66.475C224.457 69.2543 221.215 70.6439 217.244 70.6439ZM300.33 192.138C294.242 192.138 288.551 191.344 283.257 189.756C277.963 188.168 273.728 186.249 270.552 183.999L271.147 190.352H258.243L257.251 156.206H267.971C268.368 160.706 269.956 164.809 272.735 168.514C275.515 172.088 279.088 174.933 283.455 177.051C287.955 179.036 292.918 180.029 298.344 180.029C300.991 180.029 303.506 179.631 305.888 178.837C308.403 178.043 310.454 176.786 312.042 175.066C313.763 173.213 314.623 170.897 314.623 168.117C314.623 165.206 313.63 162.823 311.645 160.971C309.792 159.118 307.145 157.397 303.704 155.809C300.263 154.221 296.227 152.567 291.595 150.846C287.492 149.258 283.389 147.604 279.286 145.883C275.184 144.163 271.412 142.111 267.971 139.729C264.53 137.214 261.751 134.17 259.633 130.597C257.515 127.024 256.457 122.656 256.457 117.495C256.457 113.921 257.118 110.348 258.442 106.775C259.765 103.201 261.883 99.8926 264.794 96.8486C267.706 93.6723 271.412 91.1577 275.912 89.3048C280.544 87.452 286.168 86.5255 292.786 86.5255C296.359 86.5255 300.396 87.1211 304.896 88.3122C309.395 89.371 313.366 91.2239 316.807 93.8708L316.608 87.5181H329.512V122.458H318.792C318.13 117.826 316.674 113.723 314.425 110.149C312.175 106.444 309.197 103.532 305.491 101.415C301.785 99.297 297.352 98.2382 292.19 98.2382C287.955 98.2382 284.382 99.297 281.47 101.415C278.559 103.4 277.103 106.378 277.103 110.348C277.103 113.657 278.228 116.37 280.478 118.487C282.727 120.605 285.771 122.392 289.61 123.847C293.448 125.303 297.616 126.891 302.116 128.612C308.337 130.729 313.961 133.244 318.99 136.156C324.152 139.067 328.255 142.574 331.299 146.677C334.343 150.78 335.865 155.875 335.865 161.963C335.865 168.845 334.144 174.536 330.703 179.036C327.262 183.403 322.829 186.712 317.402 188.962C311.976 191.079 306.285 192.138 300.33 192.138ZM395.131 192.138C389.043 192.138 383.352 191.344 378.058 189.756C372.764 188.168 368.529 186.249 365.353 183.999L365.948 190.352H353.044L352.052 156.206H362.772C363.169 160.706 364.757 164.809 367.536 168.514C370.316 172.088 373.889 174.933 378.256 177.051C382.756 179.036 387.719 180.029 393.145 180.029C395.792 180.029 398.307 179.631 400.689 178.837C403.204 178.043 405.255 176.786 406.843 175.066C408.564 173.213 409.424 170.897 409.424 168.117C409.424 165.206 408.432 162.823 406.446 160.971C404.593 159.118 401.947 157.397 398.506 155.809C395.065 154.221 391.028 152.567 386.396 150.846C382.293 149.258 378.19 147.604 374.088 145.883C369.985 144.163 366.213 142.111 362.772 139.729C359.331 137.214 356.552 134.17 354.434 130.597C352.317 127.024 351.258 122.656 351.258 117.495C351.258 113.921 351.919 110.348 353.243 106.775C354.566 103.201 356.684 99.8926 359.596 96.8486C362.507 93.6723 366.213 91.1577 370.713 89.3048C375.345 87.452 380.97 86.5255 387.587 86.5255C391.16 86.5255 395.197 87.1211 399.697 88.3122C404.196 89.371 408.167 91.2239 411.608 93.8708L411.409 87.5181H424.313V122.458H413.593C412.931 117.826 411.475 113.723 409.226 110.149C406.976 106.444 403.998 103.532 400.292 101.415C396.586 99.297 392.153 98.2382 386.991 98.2382C382.756 98.2382 379.183 99.297 376.271 101.415C373.36 103.4 371.904 106.378 371.904 110.348C371.904 113.657 373.029 116.37 375.279 118.487C377.529 120.605 380.573 122.392 384.411 123.847C388.249 125.303 392.418 126.891 396.917 128.612C403.138 130.729 408.762 133.244 413.792 136.156C418.953 139.067 423.056 142.574 426.1 146.677C429.144 150.78 430.666 155.875 430.666 161.963C430.666 168.845 428.945 174.536 425.504 179.036C422.063 183.403 417.63 186.712 412.203 188.962C406.777 191.079 401.086 192.138 395.131 192.138ZM458.169 84.5403C458.169 68.9234 461.411 57.4093 467.896 49.9978C474.381 42.4541 483.778 38.6822 496.086 38.6822C501.247 38.6822 505.549 39.4763 508.99 41.0644C512.563 42.5203 515.276 44.5055 517.129 47.02C518.982 49.5346 519.908 52.3139 519.908 55.3579C519.908 58.4019 518.982 61.115 517.129 63.4972C515.276 65.8795 512.563 67.0706 508.99 67.0706C505.416 67.2029 502.703 66.2103 500.85 64.0928C498.998 61.9752 498.071 59.593 498.071 56.9461C498.071 56.152 498.137 55.4241 498.27 54.7623C498.402 54.1006 498.534 53.3727 498.667 52.5786C498.005 51.7845 497.078 51.2551 495.887 50.9904C494.829 50.5934 493.836 50.3949 492.91 50.3949C490.13 50.3949 487.947 51.2551 486.358 52.9756C484.77 54.5638 483.711 56.549 483.182 58.9313C482.653 61.3135 482.388 63.8281 482.388 66.475V89.7019H506.012V102.407L482.388 103.003L482.587 160.375C482.587 162.493 482.52 165.073 482.388 168.117C482.388 171.161 482.189 174.073 481.792 176.852C484.042 176.587 486.425 176.455 488.939 176.455C491.586 176.323 493.704 176.257 495.292 176.257V188.962H446.456V178.44C450.294 178.44 453.007 177.646 454.595 176.058C456.316 174.338 457.374 171.955 457.772 168.911C458.169 165.867 458.367 162.426 458.367 158.588L458.169 103.4L443.081 103.598V89.7019H458.169V84.5403ZM558.496 192.138C550.82 192.138 544.533 190.682 539.636 187.771C534.872 184.859 531.365 180.227 529.115 173.874C526.865 167.389 525.74 158.919 525.74 148.464V121.465C525.74 119.215 525.806 116.701 525.938 113.921C526.071 111.142 526.203 108.363 526.335 105.583C524.218 105.716 521.836 105.848 519.189 105.981C516.542 105.981 514.358 106.047 512.637 106.179V93.4737H516.012C523.291 93.4737 528.916 92.8782 532.887 91.6871C536.989 90.3636 539.769 89.0401 541.224 87.7167H550.356V148.464C550.356 157.993 551.614 165.073 554.128 169.705C556.775 174.338 561.01 176.654 566.833 176.654C570.804 176.521 574.708 175.33 578.546 173.08C582.517 170.83 585.693 168.183 588.075 165.14V122.259C588.075 119.612 588.141 116.899 588.274 114.12C588.406 111.208 588.605 108.363 588.869 105.583C586.752 105.716 584.303 105.848 581.524 105.981C578.877 105.981 576.693 106.047 574.973 106.179V93.4737H580.134C586.222 93.4737 591.251 92.812 595.222 91.4885C599.325 90.1651 602.038 88.9078 603.361 87.7167H612.493V158.985C612.493 160.838 612.427 163.551 612.295 167.125C612.162 170.698 611.964 173.941 611.699 176.852C613.949 176.587 616.331 176.455 618.846 176.455C621.36 176.323 623.412 176.19 625 176.058V188.962H590.457C590.193 187.109 589.928 185.256 589.663 183.403C589.531 181.55 589.399 179.764 589.266 178.043C585.163 181.749 580.531 185.058 575.37 187.969C570.341 190.749 564.716 192.138 558.496 192.138ZM635.785 178.44C639.623 178.44 642.336 177.646 643.924 176.058C645.645 174.338 646.638 171.955 646.902 168.911C647.299 165.867 647.498 162.426 647.498 158.588V72.8277C647.498 70.5778 647.564 68.1293 647.696 65.4824C647.829 62.7031 648.027 59.8577 648.292 56.9461C646.042 57.0784 643.594 57.2107 640.947 57.3431C638.3 57.4754 636.05 57.6078 634.197 57.7401V44.8363C640.285 44.8363 645.248 44.5716 649.086 44.0423C653.056 43.3805 656.1 42.5864 658.218 41.66C660.468 40.7336 662.056 39.8733 662.982 39.0792H671.916L672.114 160.574C672.114 162.691 672.048 165.272 671.916 168.316C671.783 171.227 671.519 174.073 671.122 176.852C673.372 176.587 675.688 176.455 678.07 176.455C680.452 176.323 682.437 176.257 684.026 176.257V188.962H635.785V178.44ZM910.779 191.344L841.892 101.812C840.437 99.694 838.848 97.5765 837.128 95.459C835.54 93.2091 833.952 90.9592 832.363 88.7093H832.165L832.562 157.993C832.562 161.566 832.496 165.007 832.363 168.316C832.363 171.624 832.231 174.338 831.966 176.455C834.216 176.323 836.797 176.19 839.709 176.058C842.62 175.926 844.936 175.86 846.657 175.86V188.962H804.372V178.043C807.813 177.911 810.46 177.382 812.313 176.455C814.298 175.396 815.754 173.676 816.68 171.294C817.607 168.779 818.07 165.47 818.07 161.368L817.872 78.7833C817.872 75.6069 817.938 72.563 818.07 69.6513C818.202 66.7397 818.335 64.3575 818.467 62.5046C816.35 62.637 813.835 62.7693 810.923 62.9017C808.012 62.9017 805.696 62.9678 803.975 63.1002V49.9978H832.562L897.875 134.369C900.654 137.942 903.037 141.119 905.022 143.898C907.139 146.677 908.992 149.192 910.58 151.442H910.779V79.1803C910.779 75.8716 910.845 72.6953 910.977 69.6513C911.11 66.6074 911.242 64.2251 911.374 62.5046C909.257 62.637 906.742 62.7693 903.831 62.9017C900.919 62.9017 898.537 62.9678 896.684 63.1002V49.9978H939.167V60.9165C935.594 61.0488 932.748 61.7105 930.631 62.9017C928.646 63.9604 927.256 65.8795 926.462 68.6587C925.668 71.438 925.271 75.4084 925.271 80.5699L925.072 191.344H910.779ZM999.527 192.138C990.13 192.138 981.594 190.087 973.917 185.984C966.241 181.749 960.153 175.86 955.654 168.316C951.286 160.64 949.102 151.706 949.102 141.516C949.102 130.796 951.352 121.267 955.852 112.929C960.352 104.591 966.374 98.1059 973.917 93.4737C981.594 88.8416 989.998 86.5255 999.13 86.5255C1008.53 86.5255 1017 88.6431 1024.54 92.8782C1032.08 97.1133 1038.04 103.003 1042.41 110.546C1046.91 118.09 1049.16 127.024 1049.16 137.347C1049.16 148.199 1046.97 157.794 1042.61 166.132C1038.37 174.338 1032.48 180.756 1024.94 185.389C1017.53 189.888 1009.06 192.138 999.527 192.138ZM1000.52 180.029C1006.47 180.029 1011.04 178.176 1014.22 174.47C1017.39 170.764 1019.58 166.066 1020.77 160.375C1022.09 154.552 1022.75 148.596 1022.75 142.508C1022.75 137.347 1022.29 132.119 1021.36 126.825C1020.57 121.531 1019.25 116.767 1017.39 112.532C1015.54 108.164 1013.09 104.723 1010.05 102.209C1007 99.5617 1003.3 98.2382 998.931 98.2382C993.108 98.3706 988.476 100.29 985.035 103.995C981.594 107.701 979.079 112.399 977.491 118.09C976.035 123.781 975.307 129.803 975.307 136.156C975.307 143.302 976.167 150.317 977.888 157.199C979.608 163.948 982.321 169.507 986.027 173.874C989.733 178.109 994.564 180.161 1000.52 180.029ZM1103.01 192.138C1099.3 192.138 1095.66 191.675 1092.09 190.749C1088.65 189.822 1085.47 188.102 1082.56 185.587C1079.78 183.072 1077.53 179.367 1075.81 174.47C1074.09 169.441 1073.23 162.823 1073.23 154.618L1073.63 103.4L1059.53 103.598V89.7019C1063.5 89.5695 1067.34 88.2461 1071.05 85.7315C1074.75 83.0845 1077.99 79.6435 1080.77 75.4084C1083.55 71.1733 1085.41 66.6735 1086.33 61.9091H1098.44L1098.24 89.7019H1126.24V102.407L1098.24 103.003L1098.05 154.022C1098.05 157.993 1098.38 161.698 1099.04 165.14C1099.83 168.448 1101.16 171.095 1103.01 173.08C1104.99 175.066 1107.64 176.058 1110.95 176.058C1113.46 176.058 1116.31 175.264 1119.49 173.676C1122.79 172.088 1126.1 168.911 1129.41 164.147L1137.55 171.492C1134.24 176.521 1130.8 180.426 1127.23 183.205C1123.79 185.984 1120.41 188.035 1117.1 189.359C1113.93 190.682 1111.08 191.477 1108.57 191.741C1106.05 192.006 1104.2 192.138 1103.01 192.138ZM1192 192.138C1182.48 192.138 1174.01 190.021 1166.59 185.786C1159.18 181.418 1153.43 175.33 1149.32 167.522C1145.22 159.581 1143.17 150.25 1143.17 139.53C1143.17 130.266 1145.22 121.597 1149.32 113.524C1153.43 105.451 1159.18 98.9661 1166.59 94.0693C1174.14 89.0401 1182.87 86.5255 1192.8 86.5255C1198.36 86.5255 1203.72 87.3196 1208.88 88.9078C1214.04 90.496 1218.67 93.1429 1222.77 96.8486C1226.88 100.554 1230.12 105.451 1232.5 111.539C1235.02 117.627 1236.21 125.038 1236.08 133.773L1169.37 134.964C1169.37 143.17 1170.3 150.449 1172.15 156.802C1174.14 163.022 1177.31 167.985 1181.68 171.691C1186.05 175.264 1191.81 177.051 1198.95 177.051C1202.13 177.051 1205.5 176.521 1209.08 175.463C1212.78 174.271 1216.42 172.551 1220 170.301C1223.57 167.919 1226.75 165.007 1229.52 161.566L1237.07 168.514C1232.7 174.867 1227.87 179.764 1222.58 183.205C1217.28 186.646 1211.99 188.962 1206.69 190.153C1201.4 191.477 1196.5 192.138 1192 192.138ZM1170.37 123.053H1211.66C1211.53 117.759 1210.73 113.326 1209.28 109.752C1207.95 106.047 1205.97 103.267 1203.32 101.415C1200.67 99.4294 1197.43 98.4368 1193.59 98.4368C1187.11 98.4368 1181.88 100.62 1177.91 104.988C1174.07 109.223 1171.56 115.245 1170.37 123.053ZM1295.64 192.138C1289.56 192.138 1283.87 191.344 1278.57 189.756C1273.28 188.168 1269.04 186.249 1265.87 183.999L1266.46 190.352H1253.56L1252.57 156.206H1263.29C1263.68 160.706 1265.27 164.809 1268.05 168.514C1270.83 172.088 1274.4 174.933 1278.77 177.051C1283.27 179.036 1288.23 180.029 1293.66 180.029C1296.31 180.029 1298.82 179.631 1301.2 178.837C1303.72 178.043 1305.77 176.786 1307.36 175.066C1309.08 173.213 1309.94 170.897 1309.94 168.117C1309.94 165.206 1308.95 162.823 1306.96 160.971C1305.11 159.118 1302.46 157.397 1299.02 155.809C1295.58 154.221 1291.54 152.567 1286.91 150.846C1282.81 149.258 1278.7 147.604 1274.6 145.883C1270.5 144.163 1266.73 142.111 1263.29 139.729C1259.84 137.214 1257.07 134.17 1254.95 130.597C1252.83 127.024 1251.77 122.656 1251.77 117.495C1251.77 113.921 1252.43 110.348 1253.76 106.775C1255.08 103.201 1257.2 99.8926 1260.11 96.8486C1263.02 93.6723 1266.73 91.1577 1271.23 89.3048C1275.86 87.452 1281.48 86.5255 1288.1 86.5255C1291.67 86.5255 1295.71 87.1211 1300.21 88.3122C1304.71 89.371 1308.68 91.2239 1312.12 93.8708L1311.92 87.5181H1324.83V122.458H1314.11C1313.44 117.826 1311.99 113.723 1309.74 110.149C1307.49 106.444 1304.51 103.532 1300.81 101.415C1297.1 99.297 1292.67 98.2382 1287.5 98.2382C1283.27 98.2382 1279.7 99.297 1276.78 101.415C1273.87 103.4 1272.42 106.378 1272.42 110.348C1272.42 113.657 1273.54 116.37 1275.79 118.487C1278.04 120.605 1281.09 122.392 1284.92 123.847C1288.76 125.303 1292.93 126.891 1297.43 128.612C1303.65 130.729 1309.28 133.244 1314.31 136.156C1319.47 139.067 1323.57 142.574 1326.61 146.677C1329.66 150.78 1331.18 155.875 1331.18 161.963C1331.18 168.845 1329.46 174.536 1326.02 179.036C1322.58 183.403 1318.14 186.712 1312.72 188.962C1307.29 191.079 1301.6 192.138 1295.64 192.138Z" fill="black"/>
</g>
</svg>
